<svg version="1.1" id="Layer_1" xmlns="http://www.w3.org/2000/svg" xmlns:xlink="http://www.w3.org/1999/xlink" x="0px" y="0px"
	 width="100%" viewBox="0 0 180 180" enable-background="new 0 0 180 180" xml:space="preserve">
<path fill="#FFFEFD" opacity="1.000000" stroke="none" 
	d="
M1.000000,67.000000 
	C1.000000,44.666672 1.000000,22.833344 1.000000,1.000012 
	C60.999981,1.000008 120.999962,1.000008 180.999954,1.000004 
	C180.999969,60.999966 180.999969,120.999931 180.999985,180.999908 
	C121.000046,180.999939 61.000095,180.999939 1.000072,180.999969 
	C1.000000,143.166672 1.000000,105.333336 1.000000,67.000000 
M73.470741,176.522888 
	C75.526649,176.728088 78.483559,177.909210 79.491188,176.978958 
	C85.699066,171.247726 91.369217,164.975632 94.219391,156.121262 
	C107.641991,156.090134 121.064888,156.101013 134.487000,156.003387 
	C138.755112,155.972336 143.021118,155.652603 148.143875,155.664124 
	C152.300797,155.663208 156.483139,155.951218 160.608231,155.588394 
	C165.793076,155.132401 166.856979,152.186844 163.973770,148.035294 
	C157.340240,138.483597 150.767624,128.885056 144.437576,119.132042 
	C143.489212,117.670868 143.358795,115.075401 143.908722,113.340195 
	C148.511826,98.815781 148.944305,84.323662 143.777023,69.914017 
	C142.741501,67.026352 143.125488,65.064774 144.765747,62.669880 
	C151.334045,53.079712 157.718231,43.363461 164.172958,33.695488 
	C166.225647,30.620947 165.272095,27.813591 161.698425,27.202765 
	C159.785172,26.875744 157.746628,27.281862 155.025955,27.171633 
	C154.263641,27.214743 153.501328,27.257853 152.051025,27.086107 
	C150.874817,27.142628 149.698624,27.199150 147.556976,26.956835 
	C142.590714,26.894552 137.624527,26.824011 132.658157,26.771585 
	C119.587776,26.633617 106.517319,26.503525 93.230576,25.700647 
	C90.700668,17.393166 85.861465,10.705255 79.177971,5.212482 
	C76.604294,3.097326 75.078445,3.882716 73.052155,6.385652 
	C70.970284,6.580154 69.180321,1.016166 66.129883,5.967091 
	C64.145096,5.420767 62.160301,4.874443 59.393959,4.430307 
	C56.245960,4.577306 53.092682,4.660554 49.954063,4.920722 
	C49.258556,4.978374 48.614838,5.660824 47.270172,5.813869 
	C45.416714,3.891015 42.948944,2.847456 41.503666,5.471965 
	C40.616791,7.082455 41.148823,9.949530 41.951862,11.873218 
	C42.663929,13.578978 44.944641,14.562916 45.983906,16.211563 
	C49.183807,21.287762 52.120724,26.529743 55.199387,31.774708 
	C7.426957,55.418552 -0.071396,121.052902 54.079594,150.394623 
	C52.643726,158.149490 48.598698,164.428574 42.836796,169.713089 
	C40.745773,171.630859 38.607117,174.084839 41.072971,176.375168 
	C42.333870,177.546341 45.589588,176.569778 48.365795,177.203674 
	C52.270855,177.374207 56.175915,177.544724 60.813564,177.882034 
	C62.773994,177.412521 64.734428,176.943008 66.887093,177.149460 
	C68.934723,176.740585 70.982346,176.331711 73.470741,176.522888 
z"/>
<path fill="#AD150A" opacity="1.000000" stroke="none" 
	d="
M47.943707,176.563934 
	C45.589588,176.569778 42.333870,177.546341 41.072971,176.375168 
	C38.607117,174.084839 40.745773,171.630859 42.836796,169.713089 
	C48.598698,164.428574 52.643726,158.149490 54.079594,150.394623 
	C-0.071396,121.052902 7.426957,55.418552 55.199387,31.774708 
	C52.120724,26.529743 49.183807,21.287762 45.983906,16.211563 
	C44.944641,14.562916 42.663929,13.578978 41.951862,11.873218 
	C41.148823,9.949530 40.616791,7.082455 41.503666,5.471965 
	C42.948944,2.847456 45.416714,3.891015 47.760612,6.231646 
	C53.718769,12.009383 58.427475,17.830643 60.442753,25.462311 
	C61.482697,29.400463 63.982510,29.810776 67.531563,27.770233 
	C68.719826,27.160168 70.324722,25.938683 70.279579,25.874311 
	C67.193207,21.473143 63.974430,17.164824 60.578239,12.564664 
	C60.318214,9.629852 60.246861,6.978985 60.175510,4.328118 
	C62.160301,4.874443 64.145096,5.420767 66.646729,6.320652 
	C70.725441,11.963015 74.682014,17.038021 77.704857,22.618788 
	C79.593880,26.106274 81.423965,27.821188 85.747757,26.606987 
	C88.604073,26.591883 91.025482,26.481089 93.446892,26.370295 
	C106.517319,26.503525 119.587776,26.633617 132.658157,26.771585 
	C137.624527,26.824011 142.590714,26.894552 148.141754,27.290009 
	C149.159363,27.734121 149.592224,27.845060 150.153427,28.300495 
	C149.952820,30.600677 150.183624,32.912407 149.203232,34.453743 
	C143.241989,43.825840 136.814178,52.905354 131.003738,62.366039 
	C129.670670,64.536560 129.184677,68.118523 129.945007,70.536392 
	C134.319229,84.446297 134.426041,98.252708 129.818314,112.020004 
	C128.678802,115.424721 129.170593,117.972786 131.151657,120.808228 
	C137.226379,129.502853 143.059174,138.366119 149.080582,147.098618 
	C150.801254,149.594009 152.053238,151.952072 149.594849,154.819305 
	C148.642044,155.072113 147.965057,155.268555 147.288086,155.464981 
	C143.021118,155.652603 138.755112,155.972336 134.487000,156.003387 
	C121.064888,156.101013 107.641991,156.090134 93.338470,156.108154 
	C90.049538,156.167145 87.641541,156.239243 84.803040,156.218536 
	C82.600906,156.567093 80.007263,156.417572 79.194511,157.548203 
	C74.785187,163.682114 70.815781,170.132248 66.694855,176.473480 
	C64.734428,176.943008 62.773994,177.412521 60.367241,177.442093 
	C60.287277,173.981979 60.653633,170.961792 61.327866,167.947784 
	C62.110569,167.643677 62.585400,167.333405 63.029823,167.015182 
	C62.999424,167.007233 63.021717,167.065994 63.357933,166.992355 
	C66.306503,163.333511 68.918854,159.748322 71.896683,155.661545 
	C69.867416,155.094788 68.958176,154.840851 67.745834,154.418671 
	C65.838585,153.962158 64.234428,153.673889 63.882294,153.610611 
	C58.334564,161.599960 53.139133,169.081940 47.943707,176.563934 
M71.219894,146.567551 
	C71.841217,146.419418 72.462540,146.271301 73.498878,145.457428 
	C73.937027,140.210922 74.293694,134.955643 74.856445,129.722534 
	C75.060135,127.828362 75.757187,125.987244 76.829643,123.861916 
	C78.851494,124.256111 80.873344,124.650307 82.916183,125.968765 
	C82.916183,133.154541 82.916183,140.340302 82.916183,147.883240 
	C84.621643,147.807068 86.417191,147.726883 89.066521,147.751495 
	C91.316864,147.664810 93.567200,147.578110 96.753525,147.711594 
	C110.660812,147.711594 124.568108,147.711594 139.143127,147.711594 
	C138.122498,146.020752 137.509491,144.911346 136.809189,143.860077 
	C131.738312,136.247772 126.434120,128.777374 121.712990,120.954735 
	C120.476585,118.906082 120.085312,115.417542 120.921944,113.199959 
	C125.984497,99.780998 127.140190,86.191452 121.871590,72.838432 
	C119.424019,66.635201 120.600937,62.417076 124.212082,57.491501 
	C129.537872,50.227169 134.250793,42.513515 139.581955,34.450974 
	C124.409882,34.450974 110.145592,34.450974 95.070786,34.246540 
	C92.795143,34.303780 90.519508,34.361023 87.357704,34.203320 
	C82.345749,33.135780 81.660431,35.691822 82.056091,39.945683 
	C82.599251,45.785416 82.604126,51.675213 82.114807,57.814960 
	C80.157349,58.044449 78.199890,58.273941 75.715935,57.977188 
	C75.154701,52.896854 74.713715,47.799007 73.977615,42.744137 
	C73.647728,40.478817 72.726639,38.299591 71.227036,35.990059 
	C63.762638,36.561520 63.352608,37.496960 64.336266,44.898632 
	C64.889427,49.060959 64.120155,53.399033 63.252071,57.999302 
	C57.658722,60.016548 56.617748,59.008076 56.192337,50.165607 
	C56.167683,48.384048 56.143024,46.602489 56.099014,44.122620 
	C55.875923,43.221077 55.652828,42.319530 55.414593,41.356789 
	C34.645123,51.077991 23.730377,71.957558 25.040144,99.027176 
	C25.783413,114.388680 41.138073,135.620560 55.437866,140.759216 
	C55.605225,139.795761 55.764954,138.876236 56.099033,137.132217 
	C56.108147,135.185028 56.117264,133.237823 56.323067,130.480179 
	C56.326748,123.489700 58.411858,122.018867 64.084335,125.883942 
	C64.111740,129.926941 64.546768,134.018143 64.075691,138.002197 
	C63.270779,144.809570 63.854774,145.883514 70.477974,146.040329 
	C70.477974,146.040329 70.867424,146.126801 71.219894,146.567551 
z"/>
<path fill="#ECB90A" opacity="1.000000" stroke="none" 
	d="
M147.715973,155.564545 
	C147.965057,155.268555 148.642044,155.072113 150.014832,154.899231 
	C152.942688,154.224030 155.174728,153.525284 157.406754,152.826538 
	C156.638123,150.787354 156.211533,148.523285 155.043427,146.746765 
	C149.019958,137.585785 142.687744,128.625839 136.771652,119.398041 
	C135.741272,117.790855 135.462219,115.001549 136.064102,113.159462 
	C140.743546,98.838066 140.959259,84.548790 136.011627,70.341507 
	C134.940903,67.266884 135.193237,65.076370 136.942154,62.510952 
	C143.026199,53.586487 148.871231,44.498566 154.993469,35.601002 
	C156.894333,32.838436 157.627197,30.307297 155.764618,27.357132 
	C157.746628,27.281862 159.785172,26.875744 161.698425,27.202765 
	C165.272095,27.813591 166.225647,30.620947 164.172958,33.695488 
	C157.718231,43.363461 151.334045,53.079712 144.765747,62.669880 
	C143.125488,65.064774 142.741501,67.026352 143.777023,69.914017 
	C148.944305,84.323662 148.511826,98.815781 143.908722,113.340195 
	C143.358795,115.075401 143.489212,117.670868 144.437576,119.132042 
	C150.767624,128.885056 157.340240,138.483597 163.973770,148.035294 
	C166.856979,152.186844 165.793076,155.132401 160.608231,155.588394 
	C156.483139,155.951218 152.300797,155.663208 147.715973,155.564545 
z"/>
<path fill="#E15E14" opacity="1.000000" stroke="none" 
	d="
M155.395294,27.264381 
	C157.627197,30.307297 156.894333,32.838436 154.993469,35.601002 
	C148.871231,44.498566 143.026199,53.586487 136.942154,62.510952 
	C135.193237,65.076370 134.940903,67.266884 136.011627,70.341507 
	C140.959259,84.548790 140.743546,98.838066 136.064102,113.159462 
	C135.462219,115.001549 135.741272,117.790855 136.771652,119.398041 
	C142.687744,128.625839 149.019958,137.585785 155.043427,146.746765 
	C156.211533,148.523285 156.638123,150.787354 157.406754,152.826538 
	C155.174728,153.525284 152.942688,154.224030 150.290665,154.842850 
	C152.053238,151.952072 150.801254,149.594009 149.080582,147.098618 
	C143.059174,138.366119 137.226379,129.502853 131.151657,120.808228 
	C129.170593,117.972786 128.678802,115.424721 129.818314,112.020004 
	C134.426041,98.252708 134.319229,84.446297 129.945007,70.536392 
	C129.184677,68.118523 129.670670,64.536560 131.003738,62.366039 
	C136.814178,52.905354 143.241989,43.825840 149.203232,34.453743 
	C150.183624,32.912407 149.952820,30.600677 150.447144,28.269066 
	C151.321335,27.695747 152.030182,27.498352 152.739014,27.300961 
	C153.501328,27.257853 154.263641,27.214743 155.395294,27.264381 
z"/>
<path fill="#E06715" opacity="1.000000" stroke="none" 
	d="
M61.019981,167.941620 
	C60.653633,170.961792 60.287277,173.981979 60.000946,177.358704 
	C56.175915,177.544724 52.270855,177.374207 48.154747,176.883804 
	C53.139133,169.081940 58.334564,161.599960 63.882294,153.610611 
	C64.234428,153.673889 65.838585,153.962158 67.617943,154.791138 
	C66.202675,159.243225 64.612198,163.154617 63.021717,167.065994 
	C63.021717,167.065994 62.999424,167.007233 62.725544,166.989624 
	C61.974438,167.295227 61.497208,167.618423 61.019981,167.941620 
z"/>
<path fill="#EDBA0A" opacity="1.000000" stroke="none" 
	d="
M93.338730,26.035471 
	C91.025482,26.481089 88.604073,26.591883 85.668655,26.263729 
	C84.635010,24.272699 84.395164,22.543753 83.545792,21.200106 
	C80.391808,16.210693 77.037186,11.348107 73.757919,6.437893 
	C75.078445,3.882716 76.604294,3.097326 79.177971,5.212482 
	C85.861465,10.705255 90.700668,17.393166 93.338730,26.035471 
z"/>
<path fill="#ECB80A" opacity="1.000000" stroke="none" 
	d="
M85.233536,156.311325 
	C87.641541,156.239243 90.049538,156.167145 92.902946,156.214172 
	C91.369217,164.975632 85.699066,171.247726 79.491188,176.978958 
	C78.483559,177.909210 75.526649,176.728088 73.398376,175.930725 
	C78.573708,169.796265 83.823860,164.255508 85.233536,156.311325 
z"/>
<path fill="#E26916" opacity="1.000000" stroke="none" 
	d="
M59.784737,4.379213 
	C60.246861,6.978985 60.318214,9.629852 60.671265,12.930799 
	C63.028019,18.286867 65.103073,22.992855 67.178123,27.698845 
	C63.982510,29.810776 61.482697,29.400463 60.442753,25.462311 
	C58.427475,17.830643 53.718769,12.009383 48.099163,6.352503 
	C48.614838,5.660824 49.258556,4.978374 49.954063,4.920722 
	C53.092682,4.660554 56.245960,4.577306 59.784737,4.379213 
z"/>
<path fill="#E05F14" opacity="1.000000" stroke="none" 
	d="
M73.405037,6.411773 
	C77.037186,11.348107 80.391808,16.210693 83.545792,21.200106 
	C84.395164,22.543753 84.635010,24.272699 85.233749,26.168041 
	C81.423965,27.821188 79.593880,26.106274 77.704857,22.618788 
	C74.682014,17.038021 70.725441,11.963015 67.007812,6.372784 
	C69.180321,1.016166 70.970284,6.580154 73.405037,6.411773 
z"/>
<path fill="#E15F16" opacity="1.000000" stroke="none" 
	d="
M84.803040,156.218536 
	C83.823860,164.255508 78.573708,169.796265 73.177994,175.630707 
	C70.982346,176.331711 68.934723,176.740585 66.790970,176.811462 
	C70.815781,170.132248 74.785187,163.682114 79.194511,157.548203 
	C80.007263,156.417572 82.600906,156.567093 84.803040,156.218536 
z"/>
<path fill="#ECB90A" opacity="1.000000" stroke="none" 
	d="
M152.395020,27.193531 
	C152.030182,27.498352 151.321335,27.695747 150.318787,27.924570 
	C149.592224,27.845060 149.159363,27.734121 148.624466,27.439426 
	C149.698624,27.199150 150.874817,27.142628 152.395020,27.193531 
z"/>
<path fill="#FEFBF9" opacity="1.000000" stroke="none" 
	d="
M95.881302,34.450974 
	C110.145592,34.450974 124.409882,34.450974 139.581955,34.450974 
	C134.250793,42.513515 129.537872,50.227169 124.212082,57.491501 
	C120.600937,62.417076 119.424019,66.635201 121.871590,72.838432 
	C127.140190,86.191452 125.984497,99.780998 120.921944,113.199959 
	C120.085312,115.417542 120.476585,118.906082 121.712990,120.954735 
	C126.434120,128.777374 131.738312,136.247772 136.809189,143.860077 
	C137.509491,144.911346 138.122498,146.020752 139.143127,147.711594 
	C124.568108,147.711594 110.660812,147.711594 96.350830,147.215744 
	C96.362450,141.015945 97.035927,135.312469 97.046700,129.607758 
	C97.050339,127.681381 95.822357,125.088219 94.304291,124.063957 
	C93.339912,123.413277 90.803802,125.092056 88.654434,125.462418 
	C86.564804,123.658348 84.787987,122.304115 82.895195,125.044502 
	C80.873344,124.650307 78.851494,124.256111 76.234093,123.804825 
	C73.802567,124.364731 71.966591,124.981720 69.860909,125.291733 
	C67.694176,122.957642 65.831734,123.215248 63.993458,125.069496 
	C58.411858,122.018867 56.326748,123.489700 55.899742,130.737885 
	C33.020813,109.307579 33.097557,72.591278 56.081932,51.053005 
	C56.617748,59.008076 57.658722,60.016548 63.921257,58.003048 
	C67.235336,60.249939 68.947983,58.019779 71.114029,56.994411 
	C72.998985,57.692280 74.620712,58.097855 76.242432,58.503433 
	C78.199890,58.273941 80.157349,58.044449 82.742638,57.951984 
	C85.262405,57.645821 87.154350,57.202633 89.337852,56.984989 
	C91.371155,57.653648 93.552734,58.935368 94.736435,58.314529 
	C96.035988,57.632919 97.109276,55.183506 97.074036,53.530098 
	C96.938377,47.164806 96.319809,40.809811 95.881302,34.450974 
M65.365364,71.726517 
	C63.520973,71.548157 61.676586,71.369797 59.062820,71.001297 
	C53.477242,68.659386 50.316784,70.716743 51.883026,76.563110 
	C53.313793,81.903786 56.489506,86.776993 58.681904,91.403946 
	C56.613144,95.405708 53.899918,99.717690 52.185398,104.395691 
	C51.415798,106.495529 51.950661,109.830307 53.249229,111.622375 
	C53.931744,112.564270 57.536831,111.388397 60.124233,111.755913 
	C62.040218,111.296585 63.956207,110.837265 66.392059,110.935287 
	C70.787331,113.813370 73.259735,112.894485 74.045921,108.090683 
	C75.334770,100.215508 78.297752,97.099220 85.957840,95.529045 
	C88.616066,94.984169 91.483612,94.549759 91.181839,90.817284 
	C90.909851,87.453224 88.367989,87.353584 85.741920,87.023933 
	C79.496437,86.239967 74.928352,81.301529 73.975876,75.205315 
	C73.703506,73.462029 72.666916,70.819695 71.463348,70.492439 
	C69.879951,70.061905 67.785309,71.511627 65.365364,71.726517 
z"/>
<path fill="#ECB808" opacity="1.000000" stroke="none" 
	d="
M56.137135,50.609306 
	C33.097557,72.591278 33.020813,109.307579 55.801395,131.143112 
	C56.117264,133.237823 56.108147,135.185028 55.678490,137.502411 
	C32.786205,122.503296 24.502895,92.109100 36.239990,67.594330 
	C40.735786,58.204163 46.449684,49.754677 56.118366,44.820930 
	C56.143024,46.602489 56.167683,48.384048 56.137135,50.609306 
z"/>
<path fill="#E05D14" opacity="1.000000" stroke="none" 
	d="
M56.108688,44.471775 
	C46.449684,49.754677 40.735786,58.204163 36.239990,67.594330 
	C24.502895,92.109100 32.786205,122.503296 55.591316,137.914642 
	C55.764954,138.876236 55.605225,139.795761 55.437866,140.759216 
	C41.138073,135.620560 25.783413,114.388680 25.040144,99.027176 
	C23.730377,71.957558 34.645123,51.077991 55.414593,41.356789 
	C55.652828,42.319530 55.875923,43.221077 56.108688,44.471775 
z"/>
<path fill="#ECB808" opacity="1.000000" stroke="none" 
	d="
M95.476044,34.348755 
	C96.319809,40.809811 96.938377,47.164806 97.074036,53.530098 
	C97.109276,55.183506 96.035988,57.632919 94.736435,58.314529 
	C93.552734,58.935368 91.371155,57.653648 89.328773,56.534718 
	C88.766708,48.712021 88.505287,41.565144 88.243866,34.418266 
	C90.519508,34.361023 92.795143,34.303780 95.476044,34.348755 
z"/>
<path fill="#EDB90A" opacity="1.000000" stroke="none" 
	d="
M88.972511,125.726212 
	C90.803802,125.092056 93.339912,123.413277 94.304291,124.063957 
	C95.822357,125.088219 97.050339,127.681381 97.046700,129.607758 
	C97.035927,135.312469 96.362450,141.015945 95.882843,147.105652 
	C93.567200,147.578110 91.316864,147.664810 88.579330,147.306335 
	C88.385597,139.816193 88.679054,132.771194 88.972511,125.726212 
z"/>
<path fill="#DF5E15" opacity="1.000000" stroke="none" 
	d="
M87.800781,34.310791 
	C88.505287,41.565144 88.766708,48.712021 89.037209,56.309174 
	C87.154350,57.202633 85.262405,57.645821 83.105072,57.816284 
	C82.604126,51.675213 82.599251,45.785416 82.056091,39.945683 
	C81.660431,35.691822 82.345749,33.135780 87.800781,34.310791 
z"/>
<path fill="#E05F15" opacity="1.000000" stroke="none" 
	d="
M88.654434,125.462418 
	C88.679054,132.771194 88.385597,139.816193 88.152435,147.253937 
	C86.417191,147.726883 84.621643,147.807068 82.916183,147.883240 
	C82.916183,140.340302 82.916183,133.154541 82.905685,125.506638 
	C84.787987,122.304115 86.564804,123.658348 88.654434,125.462418 
z"/>
<path fill="#E26317" opacity="1.000000" stroke="none" 
	d="
M70.850784,56.702118 
	C68.947983,58.019779 67.235336,60.249939 64.268547,57.832359 
	C64.120155,53.399033 64.889427,49.060959 64.336266,44.898632 
	C63.352608,37.496960 63.762638,36.561520 71.406113,36.315155 
	C71.110031,37.920551 70.218048,39.205452 70.232117,40.480354 
	C70.291817,45.889225 70.620422,51.295132 70.850784,56.702118 
z"/>
<path fill="#E26215" opacity="1.000000" stroke="none" 
	d="
M64.038895,125.476715 
	C65.831734,123.215248 67.694176,122.957642 69.841339,125.666565 
	C70.090836,132.882004 70.090202,139.415634 70.089569,145.949249 
	C63.854774,145.883514 63.270779,144.809570 64.075691,138.002197 
	C64.546768,134.018143 64.111740,129.926941 64.038895,125.476715 
z"/>
<path fill="#EAB306" opacity="1.000000" stroke="none" 
	d="
M70.283768,145.994781 
	C70.090202,139.415634 70.090836,132.882004 70.111038,125.973557 
	C71.966591,124.981720 73.802567,124.364731 75.933823,123.934830 
	C75.757187,125.987244 75.060135,127.828362 74.856445,129.722534 
	C74.293694,134.955643 73.937027,140.210922 72.921967,145.760223 
	C71.852509,146.084274 71.359962,146.105530 70.867424,146.126801 
	C70.867424,146.126801 70.477974,146.040329 70.283768,145.994781 
z"/>
<path fill="#EEBD05" opacity="1.000000" stroke="none" 
	d="
M71.114029,56.994411 
	C70.620422,51.295132 70.291817,45.889225 70.232117,40.480354 
	C70.218048,39.205452 71.110031,37.920551 71.829514,36.360771 
	C72.726639,38.299591 73.647728,40.478817 73.977615,42.744137 
	C74.713715,47.799007 75.154701,52.896854 75.979187,58.240311 
	C74.620712,58.097855 72.998985,57.692280 71.114029,56.994411 
z"/>
<path fill="#E9AF04" opacity="1.000000" stroke="none" 
	d="
M67.531563,27.770233 
	C65.103073,22.992855 63.028019,18.286867 60.859940,13.214745 
	C63.974430,17.164824 67.193207,21.473143 70.279579,25.874311 
	C70.324722,25.938683 68.719826,27.160168 67.531563,27.770233 
z"/>
<path fill="#EAB403" opacity="1.000000" stroke="none" 
	d="
M63.357933,166.992355 
	C64.612198,163.154617 66.202675,159.243225 67.921036,154.959381 
	C68.958176,154.840851 69.867416,155.094788 71.896683,155.661545 
	C68.918854,159.748322 66.306503,163.333511 63.357933,166.992355 
z"/>
<path fill="#E26215" opacity="1.000000" stroke="none" 
	d="
M71.043655,146.347168 
	C71.359962,146.105530 71.852509,146.084274 72.714455,146.093094 
	C72.462540,146.271301 71.841217,146.419418 71.043655,146.347168 
z"/>
<path fill="#EAB403" opacity="1.000000" stroke="none" 
	d="
M61.327862,167.947784 
	C61.497208,167.618423 61.974438,167.295227 62.755943,166.997589 
	C62.585400,167.333405 62.110569,167.643677 61.327862,167.947784 
z"/>
<path fill="#AD160B" opacity="1.000000" stroke="none" 
	d="
M59.822189,111.168831 
	C57.536831,111.388397 53.931744,112.564270 53.249229,111.622375 
	C51.950661,109.830307 51.415798,106.495529 52.185398,104.395691 
	C53.899918,99.717690 56.613144,95.405708 58.681904,91.403946 
	C56.489506,86.776993 53.313793,81.903786 51.883026,76.563110 
	C50.316784,70.716743 53.477242,68.659386 59.465191,71.511681 
	C60.267536,82.111488 65.118172,87.155434 74.389030,86.899742 
	C75.038185,87.079376 75.406975,87.189957 75.895782,87.638649 
	C75.983444,90.298584 75.951088,92.620415 75.720497,95.002731 
	C75.522263,95.063217 75.123062,95.174820 74.808380,95.130905 
	C73.987671,95.397232 73.481644,95.707458 72.784882,96.072990 
	C72.594131,96.128288 72.205086,96.208351 71.803345,96.111282 
	C63.175858,96.956169 60.364040,100.636147 59.822189,111.168831 
z"/>
<path fill="#ECB90D" opacity="1.000000" stroke="none" 
	d="
M72.205086,96.208351 
	C72.205086,96.208351 72.594131,96.128288 73.090820,96.084702 
	C74.099358,95.752357 74.611214,95.463593 75.123062,95.174820 
	C75.123062,95.174820 75.522263,95.063217 76.140335,95.046074 
	C79.815575,95.123222 83.606041,95.259148 83.434158,91.202682 
	C83.268875,87.302063 79.675781,86.761200 76.260689,87.195030 
	C76.097221,87.215797 75.937325,87.264717 75.775764,87.300537 
	C75.406975,87.189957 75.038185,87.079376 74.166885,86.654617 
	C68.329613,83.114265 65.632149,78.446739 65.910500,72.152863 
	C67.785309,71.511627 69.879951,70.061905 71.463348,70.492439 
	C72.666916,70.819695 73.703506,73.462029 73.975876,75.205315 
	C74.928352,81.301529 79.496437,86.239967 85.741920,87.023933 
	C88.367989,87.353584 90.909851,87.453224 91.181839,90.817284 
	C91.483612,94.549759 88.616066,94.984169 85.957840,95.529045 
	C78.297752,97.099220 75.334770,100.215508 74.045921,108.090683 
	C73.259735,112.894485 70.787331,113.813370 66.172104,110.286507 
	C68.036453,105.161270 70.120773,100.684807 72.205086,96.208351 
z"/>
<path fill="#E15F17" opacity="1.000000" stroke="none" 
	d="
M71.803345,96.111282 
	C70.120773,100.684807 68.036453,105.161270 65.912170,110.007828 
	C63.956207,110.837265 62.040218,111.296585 59.973213,111.462372 
	C60.364040,100.636147 63.175858,96.956169 71.803345,96.111282 
z"/>
<path fill="#E15F18" opacity="1.000000" stroke="none" 
	d="
M65.637932,71.939690 
	C65.632149,78.446739 68.329613,83.114265 73.886520,86.585556 
	C65.118172,87.155434 60.267536,82.111488 59.849876,71.606750 
	C61.676586,71.369797 63.520973,71.548157 65.637932,71.939690 
z"/>
<path fill="#E05E14" opacity="1.000000" stroke="none" 
	d="
M75.895782,87.638641 
	C75.937325,87.264717 76.097221,87.215797 76.260689,87.195030 
	C79.675781,86.761200 83.268875,87.302063 83.434158,91.202682 
	C83.606041,95.259148 79.815575,95.123222 76.338577,94.985580 
	C75.951088,92.620415 75.983444,90.298584 75.895782,87.638641 
z"/>
<path fill="#E05E14" opacity="1.000000" stroke="none" 
	d="
M74.808380,95.130905 
	C74.611214,95.463593 74.099358,95.752357 73.281570,96.029404 
	C73.481644,95.707458 73.987671,95.397232 74.808380,95.130905 
z"/>
</svg>